<svg width="24" height="24" viewBox="0 0 24 24" fill="none" xmlns="http://www.w3.org/2000/svg">
<path fill-rule="evenodd" clip-rule="evenodd" d="M7.18605 6.33333C7.18605 5.77295 7.34563 5.22516 7.64461 4.75922C7.94359 4.29328 8.36854 3.93012 8.86572 3.71568C9.36291 3.50123 9.90999 3.44512 10.4378 3.55444C10.9656 3.66377 11.4504 3.93362 11.831 4.32987C12.2115 4.72611 12.4706 5.23097 12.5756 5.78058C12.6806 6.33019 12.6267 6.89988 12.4208 7.4176C12.2148 7.93533 11.8661 8.37783 11.4186 8.68916C10.9712 9.00049 10.4451 9.16667 9.90698 9.16667H4.46512C4.29858 9.16667 4.13887 9.09778 4.02112 8.97516C3.90336 8.85254 3.83721 8.68623 3.83721 8.51282C3.83721 8.33941 3.90336 8.1731 4.02112 8.05048C4.13887 7.92786 4.29858 7.85897 4.46512 7.85897H9.90698C10.1967 7.85897 10.48 7.7695 10.721 7.60186C10.9619 7.43422 11.1497 7.19595 11.2606 6.91717C11.3715 6.6384 11.4005 6.33164 11.3439 6.0357C11.2874 5.73975 11.1479 5.46791 10.943 5.25454C10.7381 5.04118 10.477 4.89588 10.1928 4.83701C9.9086 4.77814 9.61402 4.80835 9.3463 4.92383C9.07859 5.0393 8.84977 5.23484 8.68878 5.48573C8.52779 5.73662 8.44186 6.03159 8.44186 6.33333V6.64456C8.44186 6.81798 8.37571 6.98428 8.25795 7.1069C8.14019 7.22952 7.98048 7.29841 7.81395 7.29841C7.64742 7.29841 7.48771 7.22952 7.36996 7.1069C7.2522 6.98428 7.18605 6.81798 7.18605 6.64456V6.33333ZM13.8837 8.07692C13.8837 7.34412 14.0924 6.62777 14.4834 6.01846C14.8743 5.40916 15.4301 4.93426 16.0802 4.65383C16.7304 4.3734 17.4458 4.30003 18.136 4.44299C18.8262 4.58595 19.4602 4.93883 19.9578 5.457C20.4555 5.97517 20.7943 6.63536 20.9316 7.35409C21.0689 8.07281 20.9985 8.81779 20.7292 9.49481C20.4598 10.1718 20.0038 10.7505 19.4187 11.1576C18.8335 11.5647 18.1456 11.7821 17.4419 11.7821H3.62791C3.46138 11.7821 3.30167 11.7132 3.18391 11.5905C3.06615 11.4679 3 11.3016 3 11.1282C3 10.9548 3.06615 10.7885 3.18391 10.6659C3.30167 10.5432 3.46138 10.4744 3.62791 10.4744H17.4419C17.8972 10.4744 18.3423 10.3338 18.721 10.0703C19.0996 9.80688 19.3947 9.43246 19.5689 8.99438C19.7432 8.55631 19.7888 8.07426 19.6999 7.60921C19.6111 7.14415 19.3918 6.71697 19.0698 6.38168C18.7479 6.04639 18.3376 5.81806 17.891 5.72555C17.4444 5.63305 16.9815 5.68053 16.5608 5.86198C16.1401 6.04344 15.7805 6.35072 15.5275 6.74498C15.2746 7.13924 15.1395 7.60276 15.1395 8.07692V8.51282C15.1395 8.68623 15.0734 8.85254 14.9556 8.97516C14.8379 9.09778 14.6782 9.16667 14.5116 9.16667C14.3451 9.16667 14.1854 9.09778 14.0676 8.97516C13.9499 8.85254 13.8837 8.68623 13.8837 8.51282V8.07692ZM4.67442 13.7436C4.67442 13.5702 4.74057 13.4039 4.85833 13.2813C4.97608 13.1586 5.13579 13.0897 5.30233 13.0897H17.4419C18.1456 13.0897 18.8335 13.307 19.4187 13.7142C20.0038 14.1213 20.4598 14.7 20.7292 15.377C20.9985 16.054 21.0689 16.799 20.9316 17.5177C20.7943 18.2364 20.4555 18.8966 19.9578 19.4148C19.4602 19.933 18.8262 20.2858 18.136 20.4288C17.4458 20.5718 16.7304 20.4984 16.0802 20.218C15.4301 19.9375 14.8743 19.4626 14.4834 18.8533C14.0924 18.244 13.8837 17.5277 13.8837 16.7949V16.359C13.8837 16.1856 13.9499 16.0193 14.0676 15.8966C14.1854 15.774 14.3451 15.7051 14.5116 15.7051C14.6782 15.7051 14.8379 15.774 14.9556 15.8966C15.0734 16.0193 15.1395 16.1856 15.1395 16.359V16.7949C15.1395 17.269 15.2746 17.7326 15.5275 18.1268C15.7805 18.5211 16.1401 18.8284 16.5608 19.0098C16.9815 19.1913 17.4444 19.2387 17.891 19.1462C18.3376 19.0537 18.7479 18.8254 19.0698 18.4901C19.3918 18.1548 19.6111 17.7276 19.6999 17.2626C19.7888 16.7975 19.7432 16.3155 19.5689 15.8774C19.3947 15.4393 19.0996 15.0649 18.721 14.8015C18.3423 14.538 17.8972 14.3974 17.4419 14.3974H5.30233C5.13579 14.3974 4.97608 14.3285 4.85833 14.2059C4.74057 14.0833 4.67442 13.917 4.67442 13.7436Z" fill="#AFCDFF"/>
</svg>
