<svg width="24" height="24" viewBox="0 0 24 24" fill="none" xmlns="http://www.w3.org/2000/svg">
<path d="M11.1006 3C10.3604 3 9.62819 3.15218 8.94932 3.4471C8.27045 3.74201 7.65946 4.17337 7.15429 4.71437C6.64912 5.25536 6.26057 5.89446 6.01275 6.59195C5.76494 7.28945 5.66316 8.03045 5.71373 8.76893C5.01797 9.06981 4.40949 9.5416 3.94477 10.1405C3.48005 10.7394 3.17416 11.446 3.05549 12.1948C2.93681 12.9435 3.0092 13.7101 3.26594 14.4234C3.52268 15.1367 3.95544 15.7735 4.52405 16.2748C4.70306 16.4329 4.93749 16.5133 5.17579 16.4984C5.41409 16.4836 5.63673 16.3747 5.79473 16.1956C5.95273 16.0166 6.03315 15.7822 6.0183 15.5439C6.00344 15.3055 5.89454 15.0829 5.71553 14.9249C5.34272 14.5956 5.06804 14.1698 4.92175 13.6944C4.77546 13.2189 4.76326 12.7124 4.88647 12.2304C5.00968 11.7485 5.26354 11.31 5.62006 10.9631C5.97658 10.6163 6.42192 10.3746 6.90701 10.2647C7.1396 10.2125 7.34197 10.0701 7.46969 9.86879C7.59741 9.66749 7.64005 9.42374 7.58825 9.19103C7.48904 8.72874 7.48184 8.25143 7.56708 7.78635C7.65232 7.32128 7.82832 6.87755 8.08503 6.4805C8.34174 6.08345 8.67413 5.74086 9.06323 5.47228C9.45233 5.2037 9.89051 5.0144 10.3528 4.91518C10.815 4.81596 11.2923 4.80877 11.7573 4.89401C12.2224 4.97926 12.666 5.15527 13.0631 5.412C13.4601 5.66874 13.8026 6.00116 14.0712 6.39029C14.3397 6.77943 14.529 7.21765 14.6282 7.67995C14.6703 7.88614 14.7832 8.07108 14.9475 8.20261C15.1117 8.33415 15.3169 8.40397 15.5272 8.39994H15.6001C16.3556 8.39994 17.092 8.63767 17.7049 9.07946C18.3178 9.52125 18.7761 10.1447 19.0151 10.8615C19.254 11.5783 19.2613 12.3521 19.036 13.0733C18.8108 13.7945 18.3643 14.4265 17.7599 14.8799C17.6654 14.9508 17.5857 15.0397 17.5256 15.1415C17.4654 15.2432 17.4258 15.3559 17.4091 15.4729C17.3925 15.5899 17.399 15.7091 17.4284 15.8236C17.4578 15.9381 17.5094 16.0457 17.5804 16.1403C17.6514 16.2349 17.7402 16.3145 17.842 16.3747C17.9437 16.4349 18.0563 16.4744 18.1734 16.4911C18.2904 16.5078 18.4096 16.5012 18.5241 16.4719C18.6386 16.4425 18.7462 16.3908 18.8407 16.3198C19.7059 15.6707 20.3563 14.7767 20.7075 13.7536C21.0586 12.7305 21.0945 11.6255 20.8104 10.5817C20.5262 9.53802 19.9352 8.6037 19.1139 7.89985C18.2926 7.19599 17.2788 6.75505 16.204 6.63416C15.8368 5.5729 15.1479 4.65254 14.2332 4.00117C13.3185 3.3498 12.2235 2.99984 11.1006 3ZM12.8545 14.9843C12.8919 14.8721 12.9067 14.7537 12.8983 14.6358C12.8899 14.5179 12.8584 14.4028 12.8055 14.297C12.7526 14.1913 12.6794 14.0971 12.59 14.0196C12.5007 13.9422 12.397 13.8831 12.2849 13.8458C12.1727 13.8084 12.0543 13.7935 11.9364 13.802C11.8185 13.8104 11.7034 13.8419 11.5977 13.8948C11.3842 14.0017 11.2219 14.189 11.1465 14.4155L9.34667 19.8154C9.30932 19.9276 9.29444 20.046 9.30285 20.1639C9.31127 20.2818 9.34283 20.3969 9.39572 20.5026C9.50255 20.7161 9.68981 20.8785 9.91631 20.9539C10.1428 21.0293 10.39 21.0117 10.6035 20.9048C10.817 20.798 10.9793 20.6107 11.0547 20.3842L12.8545 14.9843ZM15.8845 12.9458C15.9967 12.9831 16.1004 13.0422 16.1897 13.1196C16.2791 13.197 16.3523 13.2913 16.4052 13.397C16.4581 13.5027 16.4896 13.6178 16.498 13.7358C16.5064 13.8537 16.4915 13.9721 16.4542 14.0843L14.6543 19.4842C14.5789 19.7107 14.4166 19.898 14.2031 20.0048C13.9896 20.1117 13.7424 20.1293 13.5159 20.0539C13.2895 19.9785 13.1022 19.8162 12.9954 19.6026C12.8885 19.3891 12.8709 19.1419 12.9463 18.9154L14.7461 13.5155C14.7834 13.4033 14.8425 13.2996 14.9199 13.2102C14.9973 13.1209 15.0916 13.0477 15.1973 12.9948C15.303 12.9419 15.4181 12.9103 15.536 12.9019C15.6539 12.8935 15.7724 12.9084 15.8845 12.9458ZM9.70573 14.0843C9.78115 13.8578 9.76351 13.6106 9.65668 13.397C9.54985 13.1835 9.36259 13.0212 9.13609 12.9458C8.90959 12.8704 8.66241 12.888 8.44892 12.9948C8.23543 13.1017 8.07312 13.289 7.9977 13.5155L6.19789 18.9154C6.12247 19.1419 6.14011 19.3891 6.24694 19.6026C6.35377 19.8162 6.54103 19.9785 6.76753 20.0539C6.99403 20.1293 7.24121 20.1117 7.4547 20.0048C7.66819 19.898 7.83049 19.7107 7.90591 19.4842L9.70573 14.0843Z" fill="#48ADFF"/>
</svg>
