<svg width="24" height="24" viewBox="0 0 24 24" fill="none" xmlns="http://www.w3.org/2000/svg">
<path fill-rule="evenodd" clip-rule="evenodd" d="M7.18605 6C7.18605 5.40666 7.34563 4.82664 7.64461 4.33329C7.94359 3.83994 8.36854 3.45543 8.86572 3.22836C9.36291 3.0013 9.90999 2.94189 10.4378 3.05765C10.9656 3.1734 11.4504 3.45912 11.831 3.87868C12.2115 4.29824 12.4706 4.83279 12.5756 5.41473C12.6806 5.99667 12.6267 6.59987 12.4208 7.14805C12.2148 7.69623 11.8661 8.16476 11.4186 8.49441C10.9712 8.82405 10.4451 9 9.90698 9H4.46512C4.29858 9 4.13887 8.92706 4.02112 8.79723C3.90336 8.66739 3.83721 8.4913 3.83721 8.30769C3.83721 8.12408 3.90336 7.94799 4.02112 7.81816C4.13887 7.68832 4.29858 7.61539 4.46512 7.61539H9.90698C10.1967 7.61539 10.48 7.52064 10.721 7.34314C10.9619 7.16564 11.1497 6.91335 11.2606 6.61818C11.3715 6.32301 11.4005 5.99821 11.3439 5.68485C11.2874 5.3715 11.1479 5.08367 10.943 4.85775C10.7381 4.63184 10.477 4.47799 10.1928 4.41566C9.9086 4.35333 9.61402 4.38532 9.3463 4.50758C9.07859 4.62985 8.84977 4.83689 8.68878 5.10254C8.52779 5.36819 8.44186 5.68051 8.44186 6V6.32954C8.44186 6.51315 8.37571 6.68924 8.25795 6.81907C8.14019 6.94891 7.98048 7.02185 7.81395 7.02185C7.64742 7.02185 7.48771 6.94891 7.36996 6.81907C7.2522 6.68924 7.18605 6.51315 7.18605 6.32954V6ZM13.8837 7.84615C13.8837 7.07024 14.0924 6.31176 14.4834 5.66661C14.8743 5.02146 15.4301 4.51863 16.0802 4.2217C16.7304 3.92478 17.4458 3.84709 18.136 3.99846C18.8262 4.14983 19.4602 4.52347 19.9578 5.07212C20.4555 5.62077 20.7943 6.3198 20.9316 7.0808C21.0689 7.8418 20.9985 8.6306 20.7292 9.34745C20.4598 10.0643 20.0038 10.677 19.4187 11.1081C18.8335 11.5391 18.1456 11.7692 17.4419 11.7692H3.62791C3.46138 11.7692 3.30167 11.6963 3.18391 11.5665C3.06615 11.4366 3 11.2605 3 11.0769C3 10.8933 3.06615 10.7172 3.18391 10.5874C3.30167 10.4576 3.46138 10.3846 3.62791 10.3846H17.4419C17.8972 10.3846 18.3423 10.2357 18.721 9.95681C19.0996 9.67788 19.3947 9.28142 19.5689 8.81758C19.7432 8.35374 19.7888 7.84334 19.6999 7.35092C19.6111 6.85851 19.3918 6.4062 19.0698 6.05119C18.7479 5.69618 18.3376 5.45442 17.891 5.35647C17.4444 5.25852 16.9815 5.30879 16.5608 5.50092C16.1401 5.69305 15.7805 6.01841 15.5275 6.43586C15.2746 6.85331 15.1395 7.34409 15.1395 7.84615V8.30769C15.1395 8.4913 15.0734 8.66739 14.9556 8.79723C14.8379 8.92706 14.6782 9 14.5116 9C14.3451 9 14.1854 8.92706 14.0676 8.79723C13.9499 8.66739 13.8837 8.4913 13.8837 8.30769V7.84615ZM4.67442 13.8462C4.67442 13.6625 4.74057 13.4865 4.85833 13.3566C4.97608 13.2268 5.13579 13.1538 5.30233 13.1538H17.4419C18.1456 13.1538 18.8335 13.3839 19.4187 13.815C20.0038 14.2461 20.4598 14.8588 20.7292 15.5756C20.9985 16.2925 21.0689 17.0813 20.9316 17.8423C20.7943 18.6033 20.4555 19.3023 19.9578 19.851C19.4602 20.3996 18.8262 20.7732 18.136 20.9246C17.4458 21.076 16.7304 20.9983 16.0802 20.7014C15.4301 20.4044 14.8743 19.9016 14.4834 19.2565C14.0924 18.6113 13.8837 17.8528 13.8837 17.0769V16.6154C13.8837 16.4318 13.9499 16.2557 14.0676 16.1258C14.1854 15.996 14.3451 15.9231 14.5116 15.9231C14.6782 15.9231 14.8379 15.996 14.9556 16.1258C15.0734 16.2557 15.1395 16.4318 15.1395 16.6154V17.0769C15.1395 17.579 15.2746 18.0698 15.5275 18.4872C15.7805 18.9047 16.1401 19.23 16.5608 19.4222C16.9815 19.6143 17.4444 19.6646 17.891 19.5666C18.3376 19.4687 18.7479 19.2269 19.0698 18.8719C19.3918 18.5169 19.6111 18.0646 19.6999 17.5722C19.7888 17.0797 19.7432 16.5693 19.5689 16.1055C19.3947 15.6417 19.0996 15.2452 18.721 14.9663C18.3423 14.6873 17.8972 14.5385 17.4419 14.5385H5.30233C5.13579 14.5385 4.97608 14.4655 4.85833 14.3357C4.74057 14.2059 4.67442 14.0298 4.67442 13.8462Z" fill="#AFCDFF"/>
</svg>
