<svg width="24" height="24" viewBox="0 0 24 24" fill="none" xmlns="http://www.w3.org/2000/svg">
<path d="M17.0233 12C17.0233 13.3323 16.494 14.6099 15.552 15.552C14.6099 16.494 13.3323 17.0233 12 17.0233C10.6677 17.0233 9.39007 16.494 8.44802 15.552C7.50598 14.6099 6.97674 13.3323 6.97674 12C6.97674 10.6677 7.50598 9.39007 8.44802 8.44802C9.39007 7.50598 10.6677 6.97674 12 6.97674C13.3323 6.97674 14.6099 7.50598 15.552 8.44802C16.494 9.39007 17.0233 10.6677 17.0233 12Z" fill="#FFBB00"/>
<path fill-rule="evenodd" clip-rule="evenodd" d="M12 3C12.1665 3 12.3262 3.06615 12.444 3.18391C12.5618 3.30167 12.6279 3.46138 12.6279 3.62791V4.46512C12.6279 4.63165 12.5618 4.79136 12.444 4.90911C12.3262 5.02687 12.1665 5.09302 12 5.09302C11.8335 5.09302 11.6738 5.02687 11.556 4.90911C11.4382 4.79136 11.3721 4.63165 11.3721 4.46512V3.62791C11.3721 3.46138 11.4382 3.30167 11.556 3.18391C11.6738 3.06615 11.8335 3 12 3ZM5.63637 5.63637C5.75411 5.51879 5.9137 5.45274 6.08009 5.45274C6.24649 5.45274 6.40608 5.51879 6.52381 5.63637L6.85284 5.96456C6.96727 6.08293 7.03064 6.24151 7.02929 6.40615C7.02793 6.57078 6.96197 6.7283 6.84561 6.84478C6.72924 6.96125 6.57178 7.02736 6.40715 7.02887C6.24251 7.03038 6.08387 6.96716 5.9654 6.85284L5.63637 6.52381C5.51879 6.40608 5.45274 6.24649 5.45274 6.08009C5.45274 5.9137 5.51879 5.75411 5.63637 5.63637ZM18.3636 5.63637C18.4812 5.75411 18.5473 5.9137 18.5473 6.08009C18.5473 6.24649 18.4812 6.40608 18.3636 6.52381L18.0346 6.85284C17.9156 6.96375 17.7581 7.02413 17.5955 7.02126C17.4328 7.01839 17.2776 6.95249 17.1625 6.83745C17.0475 6.72241 16.9816 6.5672 16.9787 6.40453C16.9759 6.24186 17.0363 6.08443 17.1472 5.9654L17.4762 5.63637C17.5939 5.51879 17.7535 5.45274 17.9199 5.45274C18.0863 5.45274 18.2459 5.51879 18.3636 5.63637ZM3 12C3 11.8335 3.06615 11.6738 3.18391 11.556C3.30167 11.4382 3.46138 11.3721 3.62791 11.3721H4.46512C4.63165 11.3721 4.79136 11.4382 4.90911 11.556C5.02687 11.6738 5.09302 11.8335 5.09302 12C5.09302 12.1665 5.02687 12.3262 4.90911 12.444C4.79136 12.5618 4.63165 12.6279 4.46512 12.6279H3.62791C3.46138 12.6279 3.30167 12.5618 3.18391 12.444C3.06615 12.3262 3 12.1665 3 12ZM18.907 12C18.907 11.8335 18.9731 11.6738 19.0909 11.556C19.2086 11.4382 19.3684 11.3721 19.5349 11.3721H20.3721C20.5386 11.3721 20.6983 11.4382 20.8161 11.556C20.9338 11.6738 21 11.8335 21 12C21 12.1665 20.9338 12.3262 20.8161 12.444C20.6983 12.5618 20.5386 12.6279 20.3721 12.6279H19.5349C19.3684 12.6279 19.2086 12.5618 19.0909 12.444C18.9731 12.3262 18.907 12.1665 18.907 12ZM17.1472 17.1472C17.2649 17.0296 17.4245 16.9635 17.5909 16.9635C17.7573 16.9635 17.9169 17.0296 18.0346 17.1472L18.3636 17.4762C18.4253 17.5337 18.4748 17.603 18.5091 17.68C18.5434 17.757 18.5619 17.8402 18.5634 17.9245C18.5649 18.0088 18.5494 18.0925 18.5178 18.1707C18.4862 18.2489 18.4392 18.3199 18.3796 18.3796C18.3199 18.4392 18.2489 18.4862 18.1707 18.5178C18.0925 18.5494 18.0088 18.5649 17.9245 18.5634C17.8402 18.5619 17.757 18.5434 17.68 18.5091C17.603 18.4748 17.5337 18.4253 17.4762 18.3636L17.1472 18.0346C17.0296 17.9169 16.9635 17.7573 16.9635 17.5909C16.9635 17.4245 17.0296 17.2649 17.1472 17.1472ZM6.85284 17.1472C6.97042 17.2649 7.03647 17.4245 7.03647 17.5909C7.03647 17.7573 6.97042 17.9169 6.85284 18.0346L6.52381 18.3636C6.46633 18.4253 6.39701 18.4748 6.31999 18.5091C6.24296 18.5434 6.15982 18.5619 6.07551 18.5634C5.9912 18.5649 5.90745 18.5494 5.82927 18.5178C5.75108 18.4862 5.68006 18.4392 5.62043 18.3796C5.56081 18.3199 5.5138 18.2489 5.48222 18.1707C5.45064 18.0925 5.43513 18.0088 5.43662 17.9245C5.43811 17.8402 5.45656 17.757 5.49088 17.68C5.5252 17.603 5.57468 17.5337 5.63637 17.4762L5.96456 17.1472C6.02287 17.0888 6.09211 17.0425 6.16832 17.0109C6.24452 16.9794 6.32621 16.9631 6.4087 16.9631C6.49119 16.9631 6.57287 16.9794 6.64908 17.0109C6.72529 17.0425 6.79453 17.0888 6.85284 17.1472ZM12 18.907C12.1665 18.907 12.3262 18.9731 12.444 19.0909C12.5618 19.2086 12.6279 19.3684 12.6279 19.5349V20.3721C12.6279 20.5386 12.5618 20.6983 12.444 20.8161C12.3262 20.9338 12.1665 21 12 21C11.8335 21 11.6738 20.9338 11.556 20.8161C11.4382 20.6983 11.3721 20.5386 11.3721 20.3721V19.5349C11.3721 19.3684 11.4382 19.2086 11.556 19.0909C11.6738 18.9731 11.8335 18.907 12 18.907Z" fill="#FFBB00"/>
</svg>
