<svg width="24" height="24" viewBox="0 0 24 24" fill="none" xmlns="http://www.w3.org/2000/svg">
<path d="M12.7178 14.3854V7.27272C12.7178 7.07983 12.6412 6.89485 12.5048 6.75846C12.3684 6.62207 12.1834 6.54545 11.9905 6.54545C11.7976 6.54545 11.6126 6.62207 11.4763 6.75846C11.3399 6.89485 11.2632 7.07983 11.2632 7.27272V14.3854C11.0434 14.5123 10.8606 14.6946 10.733 14.914C10.6054 15.1335 10.5375 15.3825 10.536 15.6363C10.536 16.0221 10.6892 16.3921 10.962 16.6648C11.2348 16.9376 11.6047 17.0909 11.9905 17.0909C12.3763 17.0909 12.7462 16.9376 13.019 16.6648C13.2918 16.3921 13.445 16.0221 13.445 15.6363C13.4435 15.3825 13.3756 15.1335 13.248 14.914C13.1204 14.6946 12.9376 14.5123 12.7178 14.3854ZM15.2632 12.7272V7.27272C15.2632 6.40474 14.9184 5.57231 14.3047 4.95856C13.6909 4.3448 12.8585 4 11.9905 4C11.1225 4 10.2901 4.3448 9.67635 4.95856C9.06259 5.57231 8.71779 6.40474 8.71779 7.27272V12.7272C8.21513 13.2968 7.86989 13.9878 7.7162 14.7318C7.56252 15.4757 7.60572 16.2469 7.84154 16.9691C8.07736 17.6912 8.49762 18.3393 9.06076 18.8492C9.62389 19.3591 10.3104 19.7131 11.0523 19.8763C11.3605 19.9466 11.6746 19.988 11.9905 20C12.8346 20.0039 13.6617 19.7629 14.3716 19.3062C15.0815 18.8496 15.6437 18.1968 15.9901 17.4271C16.3365 16.6573 16.4522 15.8036 16.3232 14.9694C16.1942 14.1352 15.826 13.3564 15.2632 12.7272ZM13.8087 17.8691C13.4256 18.1805 12.9696 18.3893 12.4836 18.4759C11.9975 18.5625 11.4975 18.5239 11.0304 18.3639C10.5634 18.2038 10.1448 17.9276 9.81401 17.5611C9.48322 17.1946 9.25113 16.75 9.13961 16.2691C9.02725 15.7829 9.04182 15.276 9.18192 14.7971C9.32202 14.3183 9.58294 13.8834 9.93961 13.5345C10.0083 13.4672 10.063 13.3868 10.1004 13.2982C10.1379 13.2096 10.1574 13.1144 10.1578 13.0182V7.27272C10.1578 6.79051 10.3493 6.32805 10.6903 5.98707C11.0313 5.6461 11.4938 5.45454 11.976 5.45454C12.4582 5.45454 12.9206 5.6461 13.2616 5.98707C13.6026 6.32805 13.7941 6.79051 13.7941 7.27272V13.0472C13.7945 13.1435 13.814 13.2387 13.8515 13.3273C13.8889 13.4159 13.9436 13.4963 14.0123 13.5636C14.3096 13.8508 14.5423 14.198 14.6948 14.5822C14.8474 14.9663 14.9163 15.3786 14.897 15.7915C14.8778 16.2043 14.7707 16.6084 14.5831 16.9767C14.3954 17.3449 14.1314 17.669 13.8087 17.9272V17.8691Z" fill="#FF3535"/>
</svg>
