<svg width="24" height="24" viewBox="0 0 24 24" fill="none" xmlns="http://www.w3.org/2000/svg">
<path d="M12 3L9.3 5.7H5.7V9.3L3 12L5.7 14.7V18.3H9.3L12 21L14.7 18.3H18.3V14.7L21 12L18.3 9.3V5.7H14.7L12 3Z" stroke="white" stroke-width="2" stroke-linejoin="round"/>
<path d="M12 14.7C12.7161 14.7 13.4028 14.4155 13.9092 13.9092C14.4155 13.4028 14.7 12.7161 14.7 12C14.7 11.2839 14.4155 10.5972 13.9092 10.0908C13.4028 9.58446 12.7161 9.3 12 9.3C11.2839 9.3 10.5972 9.58446 10.0908 10.0908C9.58446 10.5972 9.3 11.2839 9.3 12C9.3 12.7161 9.58446 13.4028 10.0908 13.9092C10.5972 14.4155 11.2839 14.7 12 14.7Z" stroke="white" stroke-width="2" stroke-linejoin="round"/>
</svg>
