<svg width="24" height="24" viewBox="0 0 24 24" fill="none" xmlns="http://www.w3.org/2000/svg">
<path d="M16.1255 19.2474C16.3512 19.2475 16.5682 19.3349 16.7311 19.4912C16.8939 19.6476 16.9901 19.8608 16.9994 20.0864C17.0086 20.312 16.9304 20.5324 16.781 20.7016C16.6315 20.8709 16.4225 20.9758 16.1975 20.9944L16.126 20.9974H7.87599C7.65023 20.9973 7.43325 20.91 7.27039 20.7536C7.10754 20.5973 7.01142 20.384 7.00212 20.1585C6.99283 19.9329 7.07107 19.7125 7.22051 19.5433C7.36995 19.374 7.579 19.2691 7.80399 19.2504L7.87599 19.2474H16.1255ZM19.1255 16.2499C19.3512 16.25 19.5682 16.3374 19.7311 16.4937C19.8939 16.6501 19.9901 16.8633 19.9994 17.0889C20.0086 17.3145 19.9304 17.5349 19.781 17.7041C19.6315 17.8733 19.4225 17.9783 19.1975 17.9969L19.126 17.9999H4.87549C4.64977 17.9997 4.43288 17.9123 4.27012 17.7559C4.10736 17.5995 4.01134 17.3863 4.00211 17.1607C3.99288 16.9352 4.07116 16.7148 4.22059 16.5457C4.37002 16.3765 4.57905 16.2716 4.80399 16.2529L4.87549 16.2499H19.1255ZM12.0005 3.00244C15.169 3.00244 16.9665 5.09944 17.228 7.63244H17.308C19.347 7.63244 21 9.28094 21 11.3149C21 13.3489 19.3465 14.9974 17.3075 14.9974H6.69249C4.65349 14.9974 3.00049 13.3489 3.00049 11.3149C3.00049 9.28094 4.65349 7.63244 6.69249 7.63244H6.77249C7.03549 5.08294 8.83149 3.00244 12.0005 3.00244Z" fill="white"/>
</svg>
